<?xml version="1.0" encoding="UTF-8"?>
<svg width="167.18mm" height="33.204mm" version="1.1" viewBox="0 0 167.18 33.204" xml:space="preserve" xmlns="http://www.w3.org/2000/svg"><defs><style>.cls-1{fill-rule:evenodd;}</style></defs><g transform="translate(-34.98 -85.072)"><g fill="#354868"><g transform="matrix(.95349 0 0 1.0488 1.0583 28.261)" stroke-width=".41491" aria-label="   penVAF"><g fill="#354868"><path d="m77.677 59.449c-2.5138 0-4.3903 0.70811-5.6649 2.2306v-1.9119h-6.4084v26.059h6.7271v-8.5682c1.31 1.3454 3.1157 2.0181 5.3462 2.0181 5.2046 0 9.4179-3.8238 9.4179-9.9136s-4.2133-9.9136-9.4179-9.9136zm-1.4162 14.481c-2.266 0-4.0362-1.6641-4.0362-4.5673 0-2.9033 1.7703-4.5673 4.0362-4.5673 2.266 0 4.0362 1.6641 4.0362 4.5673 0 2.9033-1.7703 4.5673-4.0362 4.5673z"/><path d="m109.83 69.398c0-6.3376-4.6027-9.949-10.268-9.949-6.0544 0-10.551 4.107-10.551 9.8782 0 5.7357 4.4257 9.949 11.259 9.949 3.6468 0 6.3376-1.0622 8.1787-3.1157l-3.5406-3.6822c-1.31 1.133-2.5492 1.6641-4.4257 1.6641-2.4784 0-4.1425-1.133-4.7089-3.0803h13.95c0.0354-0.53108 0.10622-1.1684 0.10622-1.6641zm-10.232-5.1692c2.0889 0 3.576 1.2746 3.93 3.2927h-7.86c0.38946-2.0181 1.8411-3.2927 3.93-3.2927z"/><path d="m125.44 59.449c-2.4076 0-4.5673 0.81433-6.0898 2.4076v-2.0889h-6.4084v19.19h6.7271v-9.2763c0-3.1865 1.6641-4.5319 3.8238-4.5319 1.9473 0 3.1511 1.1684 3.1511 3.93v9.8782h6.7271v-10.976c0-5.9481-3.4343-8.5328-7.9308-8.5328z"/></g><path d="m134.93 54.174 7.9005 18.428 3.4983-8.3435-3.8221-10.084zm21.173 0-10.586 24.784h6.9042l10.622-24.784z" fill="#800000"/><path d="m175.01 61.042c2.0787 6.0815 4.6076 12.001 7.1873 17.915h7.2936l-10.976-24.784h-6.9041l-10.94 24.784h7.1519l1.9473-4.8152" fill="#800000"/><path d="m191.47 54.174 0.0208 5.5255 6.9897-0.1084h12.427v-5.4171zm-0.025 10.908 0.025 13.876h7.0104v-8.4971l12.378-0.0542 0.0368-5.2422-12.415-0.12072c0.11047 0.16802-7.0353 0.03803-7.0353 0.03803z" fill="#354868"/><path transform="scale(.27749 .25228)" d="m599.24 263.76 19.5-48.517 12.055-0.21238c9.2096-0.16225 12.147 0.0202 12.444 0.77287 0.21386 0.54189 8.8151 21.853 19.114 47.358s18.902 46.99 19.118 47.745c0.36698 1.2804-0.452 1.3579-12.249 1.1593l-12.642-0.21282-5.2598-13.525c-6.0309-15.508-14.829-39.75-18.022-49.657-1.1987-3.7194-2.3741-6.7626-2.6121-6.7626s-6.1664 15.738-13.174 34.973l-12.742 34.973-25.031 0.42433z" fill-opacity="0"/></g><g transform="scale(.95636 1.0456)" stroke-width=".33692" aria-label="O"><path d="m49.99 106.22c7.7428 0 13.414-5.2298 13.414-12.429 0-7.1994-5.6713-12.429-13.414-12.429-7.7428 0-13.414 5.2298-13.414 12.429 0 7.1994 5.6713 12.429 13.414 12.429zm0-6.4863c-2.9545 0-5.3317-2.2413-5.3317-5.9429s2.3772-5.9429 5.3317-5.9429 5.3317 2.2413 5.3317 5.9429-2.3772 5.9429-5.3317 5.9429z"/></g></g><text transform="scale(.26458)" fill="#000000" font-family="Montserrat" font-size="85.333px" font-weight="800" stroke-width="1.9049" style="font-variant-caps:normal;font-variant-east-asian:normal;font-variant-ligatures:normal;font-variant-numeric:normal;shape-inside:url(#rect2784);white-space:pre" xml:space="preserve"/></g></svg>
